<svg width="483" height="483" viewBox="0 0 483 483" fill="none" xmlns="http://www.w3.org/2000/svg">
<path d="M273.487 305.685C273.487 350.109 309.499 386.121 353.923 386.121C398.343 386.121 434.356 350.109 434.356 305.685C434.356 261.265 398.343 225.253 353.923 225.253C309.519 225.301 273.535 261.285 273.487 305.685V305.685ZM353.923 241.338C389.462 241.338 418.27 270.147 418.27 305.685C418.27 341.224 389.462 370.033 353.923 370.033C318.384 370.033 289.575 341.224 289.575 305.685C289.614 270.166 318.4 241.377 353.923 241.338Z" fill="white"/>
<path d="M307.961 466.557H399.891V482.643H307.961V466.557Z" fill="white"/>
<path d="M273.487 434.38H434.359V450.469H273.487V434.38Z" fill="white"/>
<path d="M96.5294 434.38H112.618V450.469H96.5294V434.38Z" fill="white"/>
<path d="M48.2704 450.469H64.3556V466.557H48.2704V450.469Z" fill="white"/>
<path d="M97.3342 389.12C139.334 315.972 165.686 234.897 174.72 151.034L249.526 225.395C251.022 226.885 253.044 227.725 255.156 227.735C255.591 227.738 256.029 227.703 256.457 227.631C259.008 227.216 261.201 225.6 262.353 223.289C277.517 193.024 271.579 156.447 247.618 132.534L241.04 125.954H297.616C302.059 125.957 305.664 122.358 305.664 117.916C305.667 117.046 305.524 116.183 305.252 115.362C294.569 83.237 264.508 61.5737 230.653 61.6061H220.198L260.367 21.2031C263.502 18.0555 263.489 12.9642 260.341 9.82957C259.731 9.22276 259.03 8.71655 258.261 8.33364C227.983 -6.84628 191.386 -0.911247 167.458 23.0625L159.777 30.7433C157.272 33.2647 154.945 35.9515 152.803 38.7876C150.688 35.9515 148.377 33.2647 145.892 30.7433L138.211 23.0625C114.302 -0.895022 77.7249 -6.83005 47.4656 8.33364C43.4906 10.3196 41.8778 15.1513 43.8637 19.1231C44.2466 19.8922 44.7528 20.5931 45.3596 21.2031L85.5744 61.6061H75.0153C41.1607 61.5737 11.0961 83.237 0.41697 115.362C-0.991343 119.574 1.28337 124.13 5.49857 125.538C6.31955 125.814 7.18271 125.954 8.05236 125.954H64.5731L57.9955 132.534C34.0347 156.447 28.0965 193.024 43.2569 223.289C44.4121 225.6 46.6057 227.216 49.153 227.631C49.5846 227.703 50.0194 227.738 50.4575 227.735C52.5829 227.735 54.6208 226.895 56.1264 225.395L125.786 156.148C117.161 233.225 88.1314 306.607 41.6896 368.722C30.8774 365.883 19.9159 363.647 8.85711 362.031L3.83067 361.525L2.22117 377.539L6.91013 377.996C14.9544 379.148 22.9467 380.774 30.8969 382.614C29.2874 384.632 27.6779 386.683 26.0132 388.672L38.3505 398.991C100.164 325.499 137.014 234.261 143.578 138.453L152.836 129.254L159.767 136.146C151.311 238.606 116.142 337.061 57.7684 421.689L70.9429 430.908C77.2673 421.881 83.2997 412.513 89.1471 402.966C126.772 420.963 159.994 446.99 186.473 479.216L198.914 469.024C183.257 449.989 165.319 432.949 145.499 418.295H482.618V402.207H121.668C113.783 397.446 105.644 393.134 97.3342 389.12V389.12ZM252.203 205.358L167.218 120.862C188.956 114.372 212.501 120.262 228.622 136.224L236.303 143.908C252.395 159.971 258.482 183.506 252.203 205.358ZM285.344 109.868H218.744C203.233 102.486 185.733 100.396 168.921 103.924C180.626 87.4652 199.57 77.6914 219.766 77.6946H230.624C253.362 77.6589 274.321 89.9833 285.344 109.868ZM171.125 42.1169L178.809 34.4361C194.884 18.3411 218.43 12.2503 240.291 18.5325L192.609 66.4963C177.134 72.1912 163.849 82.6205 154.637 96.298C150.895 76.6206 157.067 56.359 171.15 42.1169H171.125ZM126.815 34.4361L134.495 42.1169C138.078 45.774 141.187 49.8691 143.747 54.3017C140.103 62.7743 138.023 71.831 137.601 81.0402C130.381 74.732 122.064 69.8061 113.069 66.4963L65.3778 18.5325C87.2326 12.2535 110.772 18.3443 126.837 34.4361H126.815ZM74.9894 77.6946H85.8502C106.06 77.6752 125.03 87.4457 136.747 103.914C119.945 100.4 102.451 102.489 86.9503 109.868H20.3248C31.3447 89.993 52.2876 77.6719 75.0153 77.6946H74.9894ZM53.4656 205.358C47.1866 183.506 53.2774 159.971 69.3691 143.908L77.0499 136.224C88.6214 124.682 104.314 118.221 120.662 118.273C126.695 118.276 132.694 119.136 138.487 120.83L53.4656 205.358Z" fill="white"/>
</svg>
