<svg width="480" height="481" viewBox="0 0 480 481" fill="none" xmlns="http://www.w3.org/2000/svg">
<path d="M479.996 224.006C480.005 202.91 470.754 182.874 454.692 169.198C460.814 159.212 464.036 147.719 463.996 136.006C463.954 103.554 439.663 76.2535 407.436 72.4385C407.81 69.6435 407.998 66.8265 407.996 64.0065C408.079 28.7395 379.557 0.0834755 344.29 0.000475488C323.538 -0.0485245 304.056 9.99048 292.052 26.9185C271.68 -1.83152 231.859 -8.62252 203.109 11.7495C197.233 15.9135 192.104 21.0425 187.94 26.9185C167.455 -1.82152 127.551 -8.51352 98.8114 11.9705C79.5364 25.7085 69.4344 48.9755 72.5564 72.4385C40.3294 76.2535 16.0384 103.554 15.9964 136.006C15.9564 147.719 19.1784 159.212 25.3004 169.198C-4.96461 194.99 -8.5906 240.434 17.2014 270.699C19.6814 273.61 22.3904 276.318 25.3004 278.798C19.1754 288.789 15.9534 300.287 15.9964 312.006C16.0364 347.336 44.6664 375.966 79.9964 376.006H127.996V464.006H103.996C99.5784 464.006 95.9964 467.588 95.9964 472.006C95.9964 476.424 99.5784 480.006 103.996 480.006H375.996C380.414 480.006 383.996 476.424 383.996 472.006C383.996 467.588 380.414 464.006 375.996 464.006H351.996V376.006H399.996C435.326 375.966 463.956 347.336 463.996 312.006C464.036 300.293 460.814 288.8 454.692 278.814C470.754 265.138 480.004 245.101 479.996 224.006ZM79.9964 359.934C53.5254 359.908 32.0624 338.477 31.9964 312.006C31.9654 301.126 35.6734 290.566 42.5004 282.094C45.2574 278.642 44.6944 273.608 41.2424 270.85C41.0754 270.716 40.9024 270.589 40.7244 270.47C15.0634 253.206 8.25539 218.409 25.5184 192.747C29.5574 186.744 34.7204 181.58 40.7244 177.542C44.3864 175.071 45.3524 170.098 42.8804 166.436C42.7604 166.258 42.6334 166.086 42.5004 165.918C35.6734 157.446 31.9654 146.886 31.9964 136.006C32.0224 109.507 53.4974 88.0325 79.9964 88.0065L82.0684 88.1185C84.6554 88.2475 87.1384 87.0885 88.7004 85.0225C90.2904 82.9825 90.7884 80.2965 90.0364 77.8225C82.5424 52.3945 97.0814 25.7055 122.51 18.2115C145.115 11.5495 169.212 22.2835 179.38 43.5425C179.38 43.6225 179.38 43.7025 179.324 43.7825C178.327 46.7815 177.556 49.8515 177.02 52.9665C176.924 53.5025 176.852 54.0465 176.772 54.5665C175.815 60.4725 175.742 66.4875 176.556 72.4145C144.32 76.2315 120.026 103.544 119.996 136.006C119.956 147.719 123.178 159.212 129.3 169.198C129.156 169.326 129.036 169.462 128.892 169.59L91.6524 132.35C88.4744 129.281 83.4094 129.369 80.3404 132.547C77.3464 135.647 77.3464 140.562 80.3404 143.662L118.036 181.358C95.6134 211.76 100.533 254.328 129.3 278.814C126.213 283.849 123.853 289.294 122.292 294.99L93.6524 266.35C90.4744 263.28 85.4104 263.368 82.3404 266.546C79.3464 269.646 79.3464 274.561 82.3404 277.662L120.172 315.494C120.236 316.606 120.252 317.726 120.372 318.814C120.452 319.566 120.604 320.286 120.708 321.022C120.916 322.502 121.124 323.974 121.436 325.422C121.62 326.286 121.876 327.118 122.092 327.966C122.42 329.246 122.748 330.534 123.156 331.782C123.444 332.67 123.788 333.518 124.116 334.39C124.556 335.558 124.996 336.734 125.508 337.87C125.892 338.734 126.308 339.574 126.732 340.414C127.276 341.51 127.836 342.59 128.436 343.614C128.908 344.414 129.412 345.214 129.924 346.014C130.564 347.03 131.22 348.022 131.916 348.99C132.468 349.79 133.044 350.534 133.636 351.286C134.364 352.23 135.124 353.134 135.908 354.03C136.54 354.75 137.18 355.462 137.836 356.15C138.636 357.014 139.524 357.838 140.404 358.654C140.844 359.07 141.252 359.534 141.708 359.934H79.9964V359.934ZM231.996 464.006H143.996V376.006H231.996V464.006ZM239.996 104.006C235.578 104.006 231.996 107.588 231.996 112.006V168.694L195.652 132.35C192.474 129.281 187.409 129.369 184.34 132.547C181.346 135.647 181.346 140.562 184.34 143.662L231.996 191.318V300.694L197.652 266.35C194.474 263.28 189.41 263.368 186.34 266.546C183.346 269.646 183.346 274.561 186.34 277.662L231.996 323.318V360.006H183.996C157.497 359.98 136.022 338.505 135.996 312.006C135.965 301.126 139.673 290.566 146.5 282.094C149.257 278.642 148.694 273.608 145.242 270.85C145.075 270.716 144.902 270.589 144.724 270.47C119.063 253.206 112.255 218.409 129.518 192.747C133.557 186.744 138.72 181.58 144.724 177.542C148.386 175.071 149.352 170.098 146.88 166.436C146.76 166.258 146.633 166.086 146.5 165.918C139.673 157.446 135.965 146.886 135.996 136.006C136.022 109.507 157.497 88.0325 183.996 88.0065L186.068 88.1185C188.658 88.2625 191.147 87.1005 192.7 85.0225C194.29 82.9825 194.788 80.2965 194.036 77.8225C192.688 73.3405 192 68.6865 191.996 64.0065C192 61.0535 192.282 58.1075 192.836 55.2065C192.836 55.0945 192.836 54.9745 192.884 54.8625C193.464 51.9745 194.302 49.1445 195.388 46.4065C202.611 28.0795 220.297 16.0265 239.996 16.0065C259.695 16.0265 277.381 28.0795 284.604 46.4065C285.693 49.1625 286.531 52.0115 287.108 54.9185C287.108 55.0305 287.108 55.1505 287.156 55.2625C287.707 58.1445 287.988 61.0725 287.996 64.0065C287.992 68.6865 287.304 73.3405 285.956 77.8225C285.204 80.2965 285.702 82.9825 287.292 85.0225C288.851 87.0925 291.336 88.2525 293.924 88.1185L295.996 88.0065C322.495 88.0325 343.97 109.507 343.996 136.006C344.027 146.886 340.319 157.446 333.492 165.918C330.735 169.37 331.298 174.404 334.75 177.162C334.917 177.296 335.09 177.423 335.268 177.542C360.929 194.806 367.737 229.603 350.473 255.265C346.434 261.268 341.271 266.432 335.268 270.47C331.606 272.941 330.64 277.914 333.112 281.576C333.232 281.754 333.359 281.926 333.492 282.094C340.319 290.566 344.027 301.126 343.996 312.006C343.97 338.505 322.495 359.98 295.996 360.006H247.996V250.766C248.593 250.471 249.15 250.1 249.652 249.662L301.652 197.662C304.722 194.484 304.634 189.42 301.456 186.35C298.356 183.356 293.441 183.356 290.34 186.35L247.996 228.694V112.006C247.996 107.587 244.414 104.006 239.996 104.006ZM335.996 464.006H247.996V376.006H335.996V464.006ZM437.111 281.576C437.231 281.754 437.358 281.926 437.491 282.094C444.318 290.566 448.026 301.126 447.995 312.006C447.969 338.505 426.494 359.98 399.995 360.006H338.284C338.74 359.606 339.148 359.142 339.588 358.726C340.468 357.926 341.324 357.086 342.156 356.222C342.812 355.534 343.452 354.822 344.084 354.102C344.884 353.206 345.628 352.302 346.356 351.358C346.948 350.606 347.524 349.846 348.076 349.062C348.772 348.094 349.428 347.102 350.068 346.086C350.58 345.286 351.084 344.486 351.556 343.686C352.156 342.63 352.716 341.55 353.26 340.486C353.676 339.646 354.06 338.806 354.484 337.942C354.996 336.806 355.436 335.63 355.876 334.462C356.204 333.59 356.548 332.742 356.836 331.854C357.244 330.606 357.572 329.318 357.9 328.038C358.116 327.19 358.372 326.358 358.556 325.494C358.868 324.046 359.076 322.574 359.284 321.094C359.388 320.358 359.54 319.638 359.62 318.886C359.869 316.601 359.995 314.304 359.996 312.006C360.036 300.293 356.814 288.8 350.692 278.814C365.791 265.917 374.881 247.346 375.804 227.51L405.652 197.662C408.722 194.484 408.634 189.42 405.456 186.35C402.356 183.356 397.441 183.356 394.34 186.35L373.852 206.838C370.27 192.185 362.167 179.03 350.692 169.238C356.821 159.241 360.043 147.733 359.996 136.006C359.954 103.554 335.663 76.2535 303.436 72.4385C304.242 66.5105 304.161 60.4945 303.196 54.5905C303.116 54.0465 303.044 53.5025 302.948 52.9905C302.412 49.8755 301.641 46.8055 300.644 43.8065C300.644 43.7265 300.644 43.6465 300.588 43.5665C312.027 19.6515 340.686 9.53747 364.601 20.9765C385.86 31.1445 396.593 55.2425 389.932 77.8465C389.18 80.3205 389.678 83.0065 391.268 85.0465C392.83 87.1125 395.313 88.2715 397.9 88.1425L399.996 88.0065C426.495 88.0325 447.97 109.507 447.996 136.006C448.027 146.886 444.319 157.446 437.492 165.918C434.735 169.37 435.298 174.404 438.75 177.162C438.917 177.296 439.09 177.423 439.268 177.542C464.929 194.806 471.737 229.603 454.473 255.265C450.434 261.268 445.271 266.432 439.268 270.47C435.605 272.941 434.64 277.914 437.111 281.576Z" fill="white"/>
</svg>
