<svg width="467" height="483" viewBox="0 0 467 483" fill="none" xmlns="http://www.w3.org/2000/svg">
<path d="M429.342 162.556C442.473 152.936 452.879 139.833 459.256 124.437C468.456 102.227 468.456 77.7638 459.256 55.5538C450.056 33.3438 432.758 16.0458 410.549 6.84675C395.955 0.800751 379.974 -1.29725 364.341 0.776751L338.646 4.18575L354.404 24.7658C367.408 41.7488 370.414 64.5437 362.249 84.2547C361.202 86.7807 359.987 89.1937 358.641 91.5147C332.262 49.5617 285.555 22.1187 233.063 22.1187C162.188 22.1187 101.847 72.1408 87.872 140.371C38.375 146.721 0 189.12 0 240.313C0 290.778 37.291 332.693 85.763 339.959V386.176H115.763V341.077H173.963V482.868H203.963V341.077H262.163V406.176H292.163V341.077H350.363V482.868H380.363V339.959C428.835 332.693 466.126 290.778 466.126 240.313C466.127 209.031 451.782 181.052 429.342 162.556ZM389.966 95.7357C398.445 75.2637 398.898 52.5807 391.906 32.1138C394.336 32.7768 396.729 33.5938 399.069 34.5628C413.876 40.6958 425.407 52.2277 431.541 67.0337C437.674 81.8407 437.674 98.1497 431.541 112.956C425.427 127.717 413.744 139.301 399.087 145.378C392.432 143.007 385.467 141.296 378.256 140.371C376.971 134.099 375.291 127.982 373.251 122.042C380.293 114.366 385.898 105.555 389.966 95.7357ZM365.364 311.077H100.763C61.744 311.077 30 279.333 30 240.314C30 201.295 61.746 169.551 100.768 169.551H114.1L115.664 156.311C122.682 96.9118 173.153 52.1198 233.063 52.1198C292.973 52.1198 343.444 96.9118 350.462 156.311L352.026 169.551H365.358C404.379 169.551 436.126 201.295 436.126 240.314C436.126 279.333 404.383 311.077 365.364 311.077Z" fill="white"/>
<path d="M115.763 423.099H85.7629V482.868H115.763V423.099Z" fill="white"/>
<path d="M292.163 443.099H262.163V482.868H292.163V443.099Z" fill="white"/>
</svg>
